<svg width="50" height="50" viewBox="0 0 50 50" fill="none" xmlns="http://www.w3.org/2000/svg">
<path d="M24.8333 4C20.7129 4 16.685 5.22185 13.259 7.51105C9.83294 9.80025 7.16268 13.054 5.58585 16.8608C4.00903 20.6676 3.59646 24.8564 4.40032 28.8977C5.20417 32.939 7.18836 36.6511 10.102 39.5647C13.0155 42.4783 16.7277 44.4625 20.769 45.2664C24.8102 46.0702 28.9991 45.6576 32.8059 44.0808C36.6127 42.504 39.8664 39.8337 42.1556 36.4077C44.4448 32.9817 45.6667 28.9538 45.6667 24.8333C45.6667 22.0975 45.1278 19.3884 44.0808 16.8608C43.0339 14.3331 41.4993 12.0365 39.5647 10.1019C37.6302 8.16739 35.3335 6.63282 32.8059 5.58584C30.2783 4.53887 27.5692 4 24.8333 4V4ZM24.8333 41.5C21.537 41.5 18.3147 40.5225 15.5738 38.6912C12.833 36.8598 10.6968 34.2568 9.43535 31.2114C8.17389 28.166 7.84383 24.8148 8.48692 21.5818C9.13001 18.3488 10.7174 15.3791 13.0482 13.0482C15.3791 10.7173 18.3488 9.13 21.5818 8.48691C24.8149 7.84383 28.166 8.17388 31.2114 9.43534C34.2568 10.6968 36.8598 12.833 38.6912 15.5738C40.5225 18.3146 41.5 21.537 41.5 24.8333C41.5 29.2536 39.7441 33.4928 36.6185 36.6184C33.4928 39.7441 29.2536 41.5 24.8333 41.5V41.5Z" fill="white"/>
<path d="M25 18.75C26.1506 18.75 27.0833 17.8172 27.0833 16.6666C27.0833 15.5161 26.1506 14.5833 25 14.5833C23.8494 14.5833 22.9167 15.5161 22.9167 16.6666C22.9167 17.8172 23.8494 18.75 25 18.75Z" fill="white"/>
<path d="M25 20.8333C24.4475 20.8333 23.9176 21.0528 23.5269 21.4435C23.1362 21.8342 22.9167 22.3641 22.9167 22.9166V33.3333C22.9167 33.8859 23.1362 34.4158 23.5269 34.8065C23.9176 35.1972 24.4475 35.4167 25 35.4167C25.5525 35.4167 26.0824 35.1972 26.4731 34.8065C26.8638 34.4158 27.0833 33.8859 27.0833 33.3333V22.9166C27.0833 22.3641 26.8638 21.8342 26.4731 21.4435C26.0824 21.0528 25.5525 20.8333 25 20.8333Z" fill="white"/>
</svg>
