<svg width="6" height="30" viewBox="0 0 6 30" fill="none" xmlns="http://www.w3.org/2000/svg">
<path d="M3 17.381C4.31497 17.381 5.38095 16.315 5.38095 15C5.38095 13.6851 4.31497 12.6191 3 12.6191C1.68504 12.6191 0.619049 13.6851 0.619049 15C0.619049 16.315 1.68504 17.381 3 17.381Z" fill="white"/>
<path d="M3 5.4762C4.31497 5.4762 5.38095 4.41021 5.38095 3.09525C5.38095 1.78028 4.31497 0.714294 3 0.714294C1.68504 0.714294 0.619049 1.78028 0.619049 3.09525C0.619049 4.41021 1.68504 5.4762 3 5.4762Z" fill="white"/>
<path d="M3 29.2857C4.31497 29.2857 5.38095 28.2197 5.38095 26.9048C5.38095 25.5898 4.31497 24.5238 3 24.5238C1.68504 24.5238 0.619049 25.5898 0.619049 26.9048C0.619049 28.2197 1.68504 29.2857 3 29.2857Z" fill="white"/>
</svg>
